<svg version="1.1" id="Layer_1" xmlns="http://www.w3.org/2000/svg" xmlns:xlink="http://www.w3.org/1999/xlink" x="0px" y="0px"
	 width="100%" viewBox="0 0 225 225" enable-background="new 0 0 225 225" xml:space="preserve">
<path fill="#000000" opacity="1.000000" stroke="none" 
	d="
M151.000000,226.000000 
	C100.666672,226.000000 50.833340,226.000000 1.000007,226.000000 
	C1.000005,151.000000 1.000005,76.000015 1.000002,1.000017 
	C75.999992,1.000011 150.999985,1.000011 225.999969,1.000006 
	C225.999985,75.999985 225.999985,150.999969 226.000000,225.999969 
	C201.166672,226.000000 176.333328,226.000000 151.000000,226.000000 
M168.000000,99.000000 
	C168.000000,99.000000 167.973526,99.027115 168.225281,99.430489 
	C168.427231,99.682838 168.674698,99.877228 168.985306,100.016022 
	C168.985306,100.016022 168.984283,100.034035 169.209244,100.456787 
	C169.407654,100.719696 169.661652,100.907326 169.992371,101.018974 
	C169.992371,101.018974 169.979492,101.038979 170.265350,101.536072 
	C170.843246,102.026482 171.421143,102.516891 172.099701,103.474205 
	C172.099701,103.474205 172.178055,103.945366 172.344254,104.667130 
	C172.932251,107.107521 173.520248,109.547920 174.072342,112.792503 
	C174.061478,113.865692 174.050598,114.938889 173.558685,116.441658 
	C173.100052,117.649147 172.641434,118.856628 172.108093,120.562866 
	C172.077515,120.728165 172.046936,120.893463 171.616074,121.289314 
	C171.366455,121.482430 171.180603,121.724503 171.021744,122.022522 
	C171.021744,122.022522 171.018219,122.059837 170.650986,122.284073 
	C170.417740,122.469826 170.266296,122.707664 169.940033,123.517189 
	C169.624619,124.002602 169.309219,124.488007 168.567383,125.222336 
	C168.301468,125.428459 168.098083,125.684288 167.478226,126.091934 
	C167.478226,126.091934 166.997650,126.186394 166.605270,126.364433 
	C166.363052,126.533371 166.179611,126.751701 166.016327,127.032677 
	C166.016327,127.032677 166.038330,127.067078 165.378815,127.144386 
	C164.262207,127.785469 163.145599,128.426559 161.366455,129.081512 
	C160.925400,129.104431 160.484329,129.127350 159.201141,129.072281 
	C157.793152,129.079300 156.385147,129.086319 154.962906,129.040497 
	C154.962906,129.040497 154.925369,129.000702 154.715820,128.637222 
	C154.537643,128.407623 154.307739,128.256866 153.472504,127.884232 
	C152.627579,127.268257 151.782654,126.652290 150.634720,125.445045 
	C148.904205,123.990303 147.173706,122.535568 145.443192,121.080826 
	C144.983154,121.475502 144.523102,121.870178 144.063065,122.264854 
	C145.727753,125.141975 147.392426,128.019104 149.073898,130.938461 
	C149.073898,130.938461 149.113998,130.959869 149.157928,131.617126 
	C149.774796,132.741760 150.391663,133.866394 150.999390,135.000488 
	C150.999390,135.000488 151.011703,134.995544 151.132675,135.739548 
	C151.918686,138.255554 152.377411,141.313950 155.980713,140.901535 
	C158.999344,140.556076 161.951447,139.629593 165.437271,138.853394 
	C165.607315,138.828751 165.777359,138.804092 166.598450,138.811478 
	C167.677689,138.177734 168.756912,137.544006 170.425125,136.808960 
	C170.622787,136.784302 170.820465,136.759644 171.389618,136.590652 
	C171.618057,136.436096 171.780563,136.229614 171.910431,135.923645 
	C171.910431,135.923645 171.931442,135.869537 172.543793,135.675323 
	C173.687256,134.779068 174.830734,133.882828 176.361191,132.702118 
	C176.605927,132.491257 176.813019,132.248322 177.527679,131.666809 
	C178.001404,130.768890 178.475143,129.870972 178.988663,129.004974 
	C178.988663,129.004974 178.969070,128.958405 179.574936,128.635483 
	C183.554260,124.174889 185.305878,118.953552 184.946884,112.120193 
	C186.400864,98.476181 172.974854,84.131927 160.494827,84.144424 
	C160.320435,84.169220 160.146057,84.194016 159.043671,84.190041 
	C154.361542,84.138252 149.679428,84.086472 144.694214,83.254333 
	C144.457535,81.336357 144.224014,79.417984 143.983414,77.500496 
	C143.588562,74.353668 143.189117,71.207413 142.825516,67.221909 
	C142.851593,58.989651 137.026474,50.854004 128.589493,48.139160 
	C120.669472,45.590672 112.848541,46.278561 106.666832,52.222343 
	C100.326019,58.319111 98.800247,66.285118 100.571060,74.768356 
	C103.413834,88.386955 110.897346,99.801949 117.976570,111.469635 
	C124.075455,121.521561 129.993530,131.753250 135.029266,142.362244 
	C141.188110,155.337372 139.092545,167.225235 127.746712,176.840378 
	C124.672279,179.445831 121.642349,182.103775 118.377510,184.922821 
	C126.658081,187.370316 138.243210,182.640717 143.748428,175.293808 
	C150.360657,166.469543 150.202637,156.469559 148.142914,146.642029 
	C144.336517,128.480423 133.106018,113.984032 122.904297,98.447540 
	C122.585190,98.007126 122.266083,97.566711 121.668945,96.714638 
	C121.467201,96.449425 121.234871,96.214455 120.779510,95.566795 
	C120.626465,95.262596 120.389130,95.054527 120.110451,94.972755 
	C120.110451,94.972755 120.119568,94.921082 120.056427,94.182426 
	C118.362793,90.796822 116.669159,87.411217 115.003883,84.003601 
	C115.003883,84.003601 114.969200,84.008598 114.894669,83.444702 
	C114.589676,82.981750 114.284691,82.518799 113.897041,81.553299 
	C113.866013,81.386398 113.834991,81.219490 113.760010,80.298317 
	C112.796295,76.874825 111.832588,73.451340 110.899910,69.188896 
	C110.835625,68.072891 110.771339,66.956879 111.237450,65.458626 
	C111.474640,64.636398 111.711823,63.814171 112.332664,62.691410 
	C112.578461,62.476765 112.798187,62.238117 113.409103,61.753330 
	C113.670197,61.554974 113.843773,61.297592 113.965744,60.957623 
	C113.965744,60.957623 113.978737,60.916687 114.337067,60.658237 
	C114.564392,60.466450 114.753197,60.242226 114.950165,59.959538 
	C114.950165,59.959538 114.982811,59.917221 115.395599,59.705460 
	C115.651703,59.519016 115.847694,59.282715 116.471832,58.900158 
	C116.471832,58.900158 116.959831,58.802551 117.718987,58.781570 
	C120.477989,58.860394 123.236992,58.939217 126.004745,58.999096 
	C126.004745,58.999096 125.985374,59.004395 126.236320,59.369377 
	C126.435432,59.601883 126.684540,59.750633 127.522598,59.886051 
	C127.701492,59.914688 127.880386,59.943329 128.303329,60.483181 
	C128.885422,60.941780 129.467529,61.400379 130.111923,62.426453 
	C130.124161,62.616356 130.136414,62.806259 130.283478,63.436722 
	C130.446915,63.711544 130.676468,63.909901 130.960831,64.017059 
	C130.960831,64.017059 130.954514,64.042870 131.114120,64.858742 
	C131.395660,66.639931 131.888428,68.417183 131.921738,70.202995 
	C132.057190,77.466133 132.051758,84.731888 132.071365,92.642387 
	C132.393372,93.393265 132.715378,94.144150 133.688110,94.941963 
	C134.122696,94.949913 134.557297,94.957863 135.929916,94.989975 
	C145.961243,95.644882 155.992569,96.299782 166.303528,97.343704 
	C166.506256,97.593277 166.738525,97.811409 167.230576,98.422676 
	C167.425018,98.689522 167.672729,98.890816 168.000000,99.000000 
M75.647064,128.033798 
	C71.648262,127.155930 67.331215,130.384445 63.509846,127.056374 
	C61.514751,125.318810 59.319012,123.794807 57.437843,121.946419 
	C51.869568,116.475174 51.701679,106.994698 56.932961,100.523483 
	C62.263115,93.929962 68.802025,92.879501 76.022263,97.395378 
	C76.668617,97.799637 77.537247,97.848518 80.092827,98.562782 
	C77.507439,92.629715 75.935165,87.520195 73.056755,83.301941 
	C72.156075,81.981995 67.656776,82.630783 64.937691,83.118980 
	C49.439449,85.901588 41.541458,97.545883 41.470165,111.446091 
	C41.383144,128.413132 55.232666,139.560989 70.070129,139.945587 
	C74.316139,140.055649 78.567429,139.962463 82.065468,139.962463 
	C83.133377,147.979706 83.472672,155.281586 85.192116,162.242554 
	C87.385437,171.122025 99.450790,178.678711 107.751060,176.840515 
	C124.995483,173.021500 129.311554,162.116333 126.345764,147.148911 
	C123.936577,134.990570 117.157242,124.583199 110.639580,114.162239 
	C103.120354,102.139893 95.089600,90.530289 90.555023,76.685822 
	C86.286133,63.652538 92.235176,51.752834 100.834328,44.847210 
	C102.246948,43.712791 103.479828,42.354557 105.835411,40.108452 
	C97.337219,41.065582 90.443260,41.559978 85.385117,47.223331 
	C76.929489,56.690693 77.315704,67.737488 79.659195,79.154251 
	C82.150032,91.288803 88.838402,101.413612 95.281097,111.621033 
	C102.590652,123.201851 110.548111,134.407684 114.474701,147.781723 
	C116.410515,154.375153 115.515976,160.681427 111.997971,163.001572 
	C108.651917,165.208313 105.161812,165.821136 101.321884,163.857544 
	C97.233490,161.766876 95.133659,158.439133 95.028091,154.071823 
	C94.831383,145.934219 94.971611,137.788483 94.971611,128.605820 
	C88.660889,128.409256 82.634865,128.221542 75.647064,128.033798 
z"/>
<path fill="#1DB5CE" opacity="1.000000" stroke="none" 
	d="
M76.127953,128.033813 
	C82.634865,128.221542 88.660889,128.409256 94.971611,128.605820 
	C94.971611,137.788483 94.831383,145.934219 95.028091,154.071823 
	C95.133659,158.439133 97.233490,161.766876 101.321884,163.857544 
	C105.161812,165.821136 108.651917,165.208313 111.997971,163.001572 
	C115.515976,160.681427 116.410515,154.375153 114.474701,147.781723 
	C110.548111,134.407684 102.590652,123.201851 95.281097,111.621033 
	C88.838402,101.413612 82.150032,91.288803 79.659195,79.154251 
	C77.315704,67.737488 76.929489,56.690693 85.385117,47.223331 
	C90.443260,41.559978 97.337219,41.065582 105.835411,40.108452 
	C103.479828,42.354557 102.246948,43.712791 100.834328,44.847210 
	C92.235176,51.752834 86.286133,63.652538 90.555023,76.685822 
	C95.089600,90.530289 103.120354,102.139893 110.639580,114.162239 
	C117.157242,124.583199 123.936577,134.990570 126.345764,147.148911 
	C129.311554,162.116333 124.995483,173.021500 107.751060,176.840515 
	C99.450790,178.678711 87.385437,171.122025 85.192116,162.242554 
	C83.472672,155.281586 83.133377,147.979706 82.065468,139.962463 
	C78.567429,139.962463 74.316139,140.055649 70.070129,139.945587 
	C55.232666,139.560989 41.383144,128.413132 41.470165,111.446091 
	C41.541458,97.545883 49.439449,85.901588 64.937691,83.118980 
	C67.656776,82.630783 72.156075,81.981995 73.056755,83.301941 
	C75.935165,87.520195 77.507439,92.629715 80.092827,98.562782 
	C77.537247,97.848518 76.668617,97.799637 76.022263,97.395378 
	C68.802025,92.879501 62.263115,93.929962 56.932961,100.523483 
	C51.701679,106.994698 51.869568,116.475174 57.437843,121.946419 
	C59.319012,123.794807 61.514751,125.318810 63.509846,127.056374 
	C67.331215,130.384445 71.648262,127.155930 76.127953,128.033813 
z"/>
<path fill="#072E4F" opacity="1.000000" stroke="none" 
	d="
M174.039734,116.012077 
	C174.050598,114.938889 174.061478,113.865692 174.256622,112.069016 
	C175.309967,108.382408 175.331741,105.678391 172.178055,103.945366 
	C172.178055,103.945366 172.099701,103.474205 171.950378,102.956482 
	C171.193848,101.972168 170.586670,101.505577 169.979492,101.038986 
	C169.979492,101.038979 169.992371,101.018974 169.837891,100.835281 
	C169.475418,100.417397 169.242371,100.211548 168.984283,100.034035 
	C168.984283,100.034035 168.985306,100.016022 168.835724,99.826706 
	C168.477982,99.399643 168.240448,99.196220 167.973526,99.027115 
	C167.973526,99.027115 168.000000,99.000000 167.845093,98.823212 
	C167.486145,98.402740 167.256180,98.186630 167.000320,97.998085 
	C166.738525,97.811409 166.506256,97.593277 166.027039,96.835983 
	C163.471436,95.242157 161.192352,94.156052 158.453888,93.057114 
	C150.014359,93.012840 142.034195,92.981400 134.039734,92.486809 
	C134.014755,89.885178 134.078766,87.743225 133.979294,85.608879 
	C133.690674,79.417549 133.336411,73.229271 132.968369,66.709740 
	C132.270721,65.600746 131.612610,64.821808 130.954514,64.042870 
	C130.954514,64.042870 130.960831,64.017059 130.846237,63.838379 
	C130.555252,63.422756 130.360931,63.201580 130.148682,62.996162 
	C130.136414,62.806259 130.124161,62.616356 129.969940,61.878632 
	C129.238403,60.877865 128.648834,60.424915 128.059280,59.971970 
	C127.880386,59.943329 127.701492,59.914688 127.100616,59.700668 
	C126.465904,59.320084 126.234818,59.149788 125.985374,59.004395 
	C125.985374,59.004395 126.004745,58.999096 125.769348,58.716461 
	C122.589630,56.550400 119.701042,55.962936 116.959831,58.802551 
	C116.959831,58.802551 116.471832,58.900158 116.044853,59.083878 
	C115.384613,59.463047 115.172928,59.679588 114.982811,59.917221 
	C114.982811,59.917221 114.950165,59.959538 114.754684,60.108421 
	C114.338242,60.452911 114.144753,60.672707 113.978737,60.916687 
	C113.978737,60.916687 113.965744,60.957623 113.775528,61.119217 
	C113.363205,61.491604 113.165390,61.723160 112.991859,61.975471 
	C112.798187,62.238117 112.578461,62.476765 111.968285,63.013237 
	C111.304955,64.170334 111.006004,65.005600 110.707054,65.840874 
	C110.771339,66.956879 110.835625,68.072891 110.721275,69.919395 
	C111.629745,74.117455 112.716858,77.585014 113.803970,81.052574 
	C113.834991,81.219490 113.866013,81.386398 114.007858,82.072571 
	C114.402184,83.064102 114.685692,83.536346 114.969200,84.008598 
	C114.969200,84.008598 115.003883,84.003601 115.015289,84.385857 
	C116.724327,88.152435 118.421944,91.536758 120.119568,94.921082 
	C120.119568,94.921082 120.110451,94.972755 120.219818,95.151985 
	C120.514015,95.585258 120.728279,95.811432 120.971970,96.009720 
	C121.234871,96.214455 121.467201,96.449425 121.891098,97.178940 
	C122.413551,98.094803 122.713860,98.546364 123.014168,98.997925 
	C133.106018,113.984032 144.336517,128.480423 148.142914,146.642029 
	C150.202637,156.469559 150.360657,166.469543 143.748428,175.293808 
	C138.243210,182.640717 126.658081,187.370316 118.377510,184.922821 
	C121.642349,182.103775 124.672279,179.445831 127.746712,176.840378 
	C139.092545,167.225235 141.188110,155.337372 135.029266,142.362244 
	C129.993530,131.753250 124.075455,121.521561 117.976570,111.469635 
	C110.897346,99.801949 103.413834,88.386955 100.571060,74.768356 
	C98.800247,66.285118 100.326019,58.319111 106.666832,52.222343 
	C112.848541,46.278561 120.669472,45.590672 128.589493,48.139160 
	C137.026474,50.854004 142.851593,58.989651 142.638733,68.003067 
	C142.324127,72.999214 142.023178,77.221710 142.205292,81.423271 
	C142.244690,82.332375 144.021011,83.166191 144.997299,84.034683 
	C149.679428,84.086472 154.361542,84.138252 159.636200,84.263611 
	C160.523026,84.397606 160.787842,84.331345 161.023209,84.138397 
	C172.974854,84.131927 186.400864,98.476181 184.753082,112.874557 
	C182.695892,118.738739 180.832474,123.848572 178.969070,128.958405 
	C178.969070,128.958405 178.988663,129.004974 178.676300,129.119965 
	C177.903427,130.147720 177.442947,131.060516 176.982452,131.973297 
	C176.813019,132.248322 176.605927,132.491257 175.841705,132.913239 
	C174.191956,134.039413 173.061707,134.954468 171.931442,135.869537 
	C171.931442,135.869537 171.910431,135.923645 171.739990,136.062241 
	C171.371185,136.363876 171.187393,136.541916 171.018158,136.734985 
	C170.820465,136.759644 170.622787,136.784302 169.799194,136.882568 
	C168.097961,137.563919 167.022690,138.171692 165.947403,138.779449 
	C165.777359,138.804092 165.607315,138.828751 164.736847,138.916046 
	C159.273209,139.029694 154.233917,139.983490 151.011703,134.995544 
	C151.011703,134.995544 150.999390,135.000488 150.996368,134.644775 
	C150.366882,133.179321 149.740448,132.069595 149.113998,130.959869 
	C149.113998,130.959869 149.073898,130.938461 149.037186,130.584305 
	C148.871338,128.474258 147.661240,126.219048 150.937729,126.036324 
	C151.782654,126.652290 152.627579,127.268257 153.887253,128.182083 
	C154.493866,128.672592 154.701660,128.846191 154.925369,129.000702 
	C154.925369,129.000702 154.962906,129.040497 155.120605,129.357788 
	C156.866623,129.500137 158.454956,129.325211 160.043274,129.150269 
	C160.484329,129.127350 160.925400,129.104431 161.952942,129.155243 
	C163.705719,128.508331 164.872025,127.787704 166.038330,127.067078 
	C166.038330,127.067078 166.016327,127.032677 166.206650,126.903214 
	C166.615143,126.596313 166.815369,126.400536 166.997650,126.186394 
	C166.997650,126.186394 167.478226,126.091934 167.911621,125.893692 
	C168.591171,125.481621 168.807434,125.240944 168.993805,124.973419 
	C169.309219,124.488007 169.624619,124.002602 170.219681,123.115181 
	C170.696991,122.515015 170.869949,122.297241 171.018219,122.059837 
	C171.018219,122.059837 171.021744,122.022522 171.216843,121.877571 
	C171.638107,121.530144 171.839569,121.305527 172.016357,121.058762 
	C172.046936,120.893463 172.077515,120.728165 172.415787,120.195953 
	C173.162231,118.556725 173.600983,117.284401 174.039734,116.012077 
z"/>
<path fill="#0D223A" opacity="1.000000" stroke="none" 
	d="
M158.913254,93.069954 
	C161.192352,94.156052 163.471436,95.242157 165.887207,96.641472 
	C155.992569,96.299782 145.961243,95.644882 135.820221,94.774513 
	C138.512939,94.372673 141.314972,94.180191 144.117889,94.001266 
	C149.049408,93.686462 153.981430,93.379936 158.913254,93.069954 
z"/>
<path fill="#001834" opacity="1.000000" stroke="none" 
	d="
M144.845764,83.644508 
	C144.021011,83.166191 142.244690,82.332375 142.205292,81.423271 
	C142.023178,77.221710 142.324127,72.999214 142.621765,68.422562 
	C143.189117,71.207413 143.588562,74.353668 143.983414,77.500496 
	C144.224014,79.417984 144.457535,81.336357 144.845764,83.644508 
z"/>
<path fill="#0E233C" opacity="1.000000" stroke="none" 
	d="
M131.034317,64.450806 
	C131.612610,64.821808 132.270721,65.600746 132.969238,67.173790 
	C133.007446,75.979515 133.005249,83.991127 132.776855,92.001518 
	C132.550659,92.000290 132.098267,91.996681 132.098267,91.996681 
	C132.051758,84.731888 132.057190,77.466133 131.921738,70.202995 
	C131.888428,68.417183 131.395660,66.639931 131.034317,64.450806 
z"/>
<path fill="#0D223A" opacity="1.000000" stroke="none" 
	d="
M151.072189,135.367554 
	C154.233917,139.983490 159.273209,139.029694 164.484711,138.969528 
	C161.951447,139.629593 158.999344,140.556076 155.980713,140.901535 
	C152.377411,141.313950 151.918686,138.255554 151.072189,135.367554 
z"/>
<path fill="#001336" opacity="1.000000" stroke="none" 
	d="
M158.453888,93.057114 
	C153.981430,93.379936 149.049408,93.686462 144.117889,94.001266 
	C141.314972,94.180191 138.512939,94.372673 135.351196,94.762436 
	C134.557297,94.957863 134.122696,94.949913 133.359131,94.603546 
	C133.025909,93.843575 133.021652,93.422035 133.276581,92.988708 
	C133.708527,92.967934 133.881287,92.958946 134.054031,92.949959 
	C142.034195,92.981400 150.014359,93.012840 158.453888,93.057114 
z"/>
<path fill="#0D223A" opacity="1.000000" stroke="none" 
	d="
M150.786224,125.740685 
	C147.661240,126.219048 148.871338,128.474258 149.028793,130.563187 
	C147.392426,128.019104 145.727753,125.141975 144.063065,122.264854 
	C144.523102,121.870178 144.983154,121.475502 145.443192,121.080826 
	C147.173706,122.535568 148.904205,123.990303 150.786224,125.740685 
z"/>
<path fill="#0D223A" opacity="1.000000" stroke="none" 
	d="
M179.272003,128.796936 
	C180.832474,123.848572 182.695892,118.738739 184.736725,113.314606 
	C185.305878,118.953552 183.554260,124.174889 179.272003,128.796936 
z"/>
<path fill="#0E233C" opacity="1.000000" stroke="none" 
	d="
M113.781990,80.675446 
	C112.716858,77.585014 111.629745,74.117455 110.705765,70.338867 
	C111.832588,73.451340 112.796295,76.874825 113.781990,80.675446 
z"/>
<path fill="#0E233C" opacity="1.000000" stroke="none" 
	d="
M120.087997,94.551758 
	C118.421944,91.536758 116.724327,88.152435 115.001114,84.396866 
	C116.669159,87.411217 118.362793,90.796822 120.087997,94.551758 
z"/>
<path fill="#0E233C" opacity="1.000000" stroke="none" 
	d="
M117.339409,58.792061 
	C119.701042,55.962936 122.589630,56.550400 125.764969,58.725929 
	C123.236992,58.939217 120.477989,58.860394 117.339409,58.792061 
z"/>
<path fill="#0D223A" opacity="1.000000" stroke="none" 
	d="
M172.261154,104.306244 
	C175.331741,105.678391 175.309967,108.382408 174.274567,111.666916 
	C173.520248,109.547920 172.932251,107.107521 172.261154,104.306244 
z"/>
<path fill="#0D223A" opacity="1.000000" stroke="none" 
	d="
M159.622208,129.111267 
	C158.454956,129.325211 156.866623,129.500137 155.127731,129.384201 
	C156.385147,129.086319 157.793152,129.079300 159.622208,129.111267 
z"/>
<path fill="#0D223A" opacity="1.000000" stroke="none" 
	d="
M165.708572,127.105728 
	C164.872025,127.787704 163.705719,128.508331 162.284210,129.148300 
	C163.145599,128.426559 164.262207,127.785469 165.708572,127.105728 
z"/>
<path fill="#0D223A" opacity="1.000000" stroke="none" 
	d="
M173.799210,116.226868 
	C173.600983,117.284401 173.162231,118.556725 172.453140,119.946579 
	C172.641434,118.856628 173.100052,117.649147 173.799210,116.226868 
z"/>
<path fill="#0D223A" opacity="1.000000" stroke="none" 
	d="
M166.272919,138.795471 
	C167.022690,138.171692 168.097961,137.563919 169.504700,136.933212 
	C168.756912,137.544006 167.677689,138.177734 166.272919,138.795471 
z"/>
<path fill="#0D223A" opacity="1.000000" stroke="none" 
	d="
M149.135956,131.288498 
	C149.740448,132.069595 150.366882,133.179321 151.000931,134.640045 
	C150.391663,133.866394 149.774796,132.741760 149.135956,131.288498 
z"/>
<path fill="#0D223A" opacity="1.000000" stroke="none" 
	d="
M172.237610,135.772430 
	C173.061707,134.954468 174.191956,134.039413 175.648209,133.055450 
	C174.830734,133.882828 173.687256,134.779068 172.237610,135.772430 
z"/>
<path fill="#0D223A" opacity="1.000000" stroke="none" 
	d="
M177.255066,131.820053 
	C177.442947,131.060516 177.903427,130.147720 178.656403,129.104004 
	C178.475143,129.870972 178.001404,130.768890 177.255066,131.820053 
z"/>
<path fill="#0E233C" opacity="1.000000" stroke="none" 
	d="
M110.972252,65.649750 
	C111.006004,65.005600 111.304955,64.170334 111.776459,63.163506 
	C111.711823,63.814171 111.474640,64.636398 110.972252,65.649750 
z"/>
<path fill="#0D223A" opacity="1.000000" stroke="none" 
	d="
M170.122421,101.287529 
	C170.586670,101.505577 171.193848,101.972168 171.900040,102.723030 
	C171.421143,102.516891 170.843246,102.026482 170.122421,101.287529 
z"/>
<path fill="#0D223A" opacity="1.000000" stroke="none" 
	d="
M133.017395,93.000488 
	C133.021652,93.422035 133.025909,93.843575 133.033783,94.580078 
	C132.715378,94.144150 132.393372,93.393265 132.084808,92.319534 
	C132.098267,91.996681 132.550659,92.000290 132.779144,92.250961 
	C133.007614,92.501625 133.017395,93.000488 133.017395,93.000488 
z"/>
<path fill="#0E233C" opacity="1.000000" stroke="none" 
	d="
M128.181305,60.227577 
	C128.648834,60.424915 129.238403,60.877865 129.938782,61.594894 
	C129.467529,61.400379 128.885422,60.941780 128.181305,60.227577 
z"/>
<path fill="#0E233C" opacity="1.000000" stroke="none" 
	d="
M122.959229,98.722733 
	C122.713860,98.546364 122.413551,98.094803 122.030106,97.384766 
	C122.266083,97.566711 122.585190,98.007126 122.959229,98.722733 
z"/>
<path fill="#0E233C" opacity="1.000000" stroke="none" 
	d="
M114.931931,83.726654 
	C114.685692,83.536346 114.402184,83.064102 114.049194,82.323853 
	C114.284691,82.518799 114.589676,82.981750 114.931931,83.726654 
z"/>
<path fill="#0E233C" opacity="1.000000" stroke="none" 
	d="
M115.189209,59.811340 
	C115.172928,59.679588 115.384613,59.463047 115.800735,59.132076 
	C115.847694,59.282715 115.651703,59.519016 115.189209,59.811340 
z"/>
<path fill="#0E233C" opacity="1.000000" stroke="none" 
	d="
M120.875740,95.788254 
	C120.728279,95.811432 120.514015,95.585258 120.198349,95.136902 
	C120.389130,95.054527 120.626465,95.262596 120.875740,95.788254 
z"/>
<path fill="#0D223A" opacity="1.000000" stroke="none" 
	d="
M171.203888,136.662811 
	C171.187393,136.541916 171.371185,136.363876 171.723358,136.086014 
	C171.780563,136.229614 171.618057,136.436096 171.203888,136.662811 
z"/>
<path fill="#0E233C" opacity="1.000000" stroke="none" 
	d="
M126.110847,59.186886 
	C126.234818,59.149788 126.465904,59.320084 126.831146,59.665459 
	C126.684540,59.750633 126.435432,59.601883 126.110847,59.186886 
z"/>
<path fill="#0E233C" opacity="1.000000" stroke="none" 
	d="
M114.157898,60.787460 
	C114.144753,60.672707 114.338242,60.452911 114.731339,60.121437 
	C114.753197,60.242226 114.564392,60.466450 114.157898,60.787460 
z"/>
<path fill="#0E233C" opacity="1.000000" stroke="none" 
	d="
M113.200485,61.864403 
	C113.165390,61.723160 113.363205,61.491604 113.757584,61.130997 
	C113.843773,61.297592 113.670197,61.554974 113.200485,61.864403 
z"/>
<path fill="#0D223A" opacity="1.000000" stroke="none" 
	d="
M154.820587,128.818970 
	C154.701660,128.846191 154.493866,128.672592 154.164062,128.332458 
	C154.307739,128.256866 154.537643,128.407623 154.820587,128.818970 
z"/>
<path fill="#0D223A" opacity="1.000000" stroke="none" 
	d="
M166.801453,126.275414 
	C166.815369,126.400536 166.615143,126.596313 166.225967,126.896591 
	C166.179611,126.751701 166.363052,126.533371 166.801453,126.275414 
z"/>
<path fill="#0D223A" opacity="1.000000" stroke="none" 
	d="
M168.780594,125.097878 
	C168.807434,125.240944 168.591171,125.481621 168.151138,125.842636 
	C168.098083,125.684288 168.301468,125.428459 168.780594,125.097878 
z"/>
<path fill="#0D223A" opacity="1.000000" stroke="none" 
	d="
M170.834595,122.171951 
	C170.869949,122.297241 170.696991,122.515015 170.348007,122.855385 
	C170.266296,122.707664 170.417740,122.469826 170.834595,122.171951 
z"/>
<path fill="#0D223A" opacity="1.000000" stroke="none" 
	d="
M171.816223,121.174042 
	C171.839569,121.305527 171.638107,121.530144 171.235245,121.874084 
	C171.180603,121.724503 171.366455,121.482430 171.816223,121.174042 
z"/>
<path fill="#0E233C" opacity="1.000000" stroke="none" 
	d="
M130.216080,63.216442 
	C130.360931,63.201580 130.555252,63.422756 130.851868,63.845749 
	C130.676468,63.909901 130.446915,63.711544 130.216080,63.216442 
z"/>
<path fill="#001834" opacity="1.000000" stroke="none" 
	d="
M160.759018,84.141411 
	C160.787842,84.331345 160.523026,84.397606 160.100204,84.278000 
	C160.146057,84.194016 160.320435,84.169220 160.759018,84.141411 
z"/>
<path fill="#0D223A" opacity="1.000000" stroke="none" 
	d="
M169.096771,100.245407 
	C169.242371,100.211548 169.475418,100.417397 169.827347,100.835632 
	C169.661652,100.907326 169.407654,100.719696 169.096771,100.245407 
z"/>
<path fill="#0D223A" opacity="1.000000" stroke="none" 
	d="
M168.099396,99.228806 
	C168.240448,99.196220 168.477982,99.399643 168.826904,99.825516 
	C168.674698,99.877228 168.427231,99.682838 168.099396,99.228806 
z"/>
<path fill="#0D223A" opacity="1.000000" stroke="none" 
	d="
M167.115448,98.210381 
	C167.256180,98.186630 167.486145,98.402740 167.831940,98.836487 
	C167.672729,98.890816 167.425018,98.689522 167.115448,98.210381 
z"/>
<path fill="#021F3D" opacity="1.000000" stroke="none" 
	d="
M133.276581,92.988708 
	C133.017395,93.000488 133.007614,92.501625 133.005341,92.252182 
	C133.005249,83.991127 133.007446,75.979515 133.008789,67.503845 
	C133.336411,73.229271 133.690674,79.417549 133.979294,85.608879 
	C134.078766,87.743225 134.014755,89.885178 134.039734,92.486809 
	C133.881287,92.958946 133.708527,92.967934 133.276581,92.988708 
z"/>
</svg>